<svg width="26" height="26" viewBox="0 0 26 26" fill="none" xmlns="http://www.w3.org/2000/svg">
<path d="M8.2599 8.22999C8.1699 8.26999 8.0999 8.33 8.0699 8.42C7.7999 9.06 7.6499 9.76 7.6499 10.5V15.49C7.6499 18.44 10.0499 20.84 12.9999 20.84C14.4799 20.84 15.8099 20.24 16.7799 19.27C16.9199 19.13 16.9199 18.91 16.7799 18.77C16.6399 18.63 16.4199 18.63 16.2799 18.77C15.4399 19.61 14.2799 20.13 12.9999 20.13C10.4399 20.13 8.3599 18.06 8.3599 15.49V10.5C8.3599 9.86 8.4899 9.24999 8.7199 8.69999C8.7999 8.51999 8.71991 8.30999 8.52991 8.22999C8.43991 8.18999 8.3499 8.18999 8.2599 8.22999Z" fill="#DBDBDB"/>
<path d="M13 5.14999C11.52 5.14999 10.18 5.74999 9.21999 6.71999C9.07999 6.85999 9.07999 7.07999 9.21999 7.21999C9.35999 7.35999 9.57999 7.35999 9.71999 7.21999C10.56 6.37999 11.72 5.85999 13 5.85999C15.56 5.85999 17.64 7.93 17.64 10.5V15.49C17.64 16.13 17.51 16.74 17.28 17.29C17.2 17.47 17.28 17.68 17.47 17.76C17.65 17.84 17.86 17.76 17.94 17.57C18.21 16.93 18.36 16.23 18.36 15.49V10.5C18.36 7.55 15.96 5.14999 13.01 5.14999H13Z" fill="#DBDBDB"/>
<path d="M16.42 8.78C16.33 8.74 16.23 8.75 16.15 8.78C15.97 8.86 15.88 9.07 15.96 9.25C16.12 9.63 16.21 10.05 16.21 10.5V15.49C16.21 17.27 14.78 18.7 13 18.7C12.11 18.7 11.31 18.34 10.73 17.76C10.59 17.62 10.37 17.62 10.23 17.76C10.09 17.9 10.09 18.12 10.23 18.26C10.94 18.97 11.92 19.41 13 19.41C15.16 19.41 16.92 17.65 16.92 15.49V10.5C16.92 9.96 16.81 9.43999 16.61 8.96999C16.57 8.87999 16.5 8.81 16.42 8.78Z" fill="#DBDBDB"/>
<path d="M12.9998 6.57999C10.8398 6.57999 9.07983 8.34 9.07983 10.5V15.49C9.07983 16.03 9.18983 16.55 9.38983 17.02C9.46983 17.2 9.67983 17.29 9.85983 17.21C10.0398 17.13 10.1298 16.92 10.0498 16.74C9.88984 16.36 9.79984 15.94 9.79984 15.49V10.5C9.79984 8.72 11.2298 7.29 13.0098 7.29C13.8998 7.29 14.6998 7.64999 15.2798 8.22999C15.4198 8.36999 15.6398 8.36999 15.7798 8.22999C15.9198 8.08999 15.9198 7.86999 15.7798 7.72999C15.0698 7.01999 14.0898 6.57999 13.0098 6.57999H12.9998Z" fill="#DBDBDB"/>
<path d="M13 8.00999C11.63 8.00999 10.5 9.12999 10.5 10.51V15.5C10.5 16.87 11.62 18 13 18C14.38 18 15.5 16.88 15.5 15.5C15.5 15.3 15.34 15.14 15.14 15.14C14.94 15.14 14.78 15.3 14.78 15.5C14.78 16.49 13.99 17.28 13 17.28C12.01 17.28 11.22 16.49 11.22 15.5V10.51C11.22 9.51999 12.01 8.72999 13 8.72999C13.99 8.72999 14.78 9.51999 14.78 10.51V14.26C14.78 14.46 14.94 14.62 15.14 14.62C15.34 14.62 15.5 14.46 15.5 14.26V10.51C15.5 9.13999 14.38 8.00999 13 8.00999Z" fill="#DBDBDB"/>
<path d="M12.9999 9.43C12.4099 9.43 11.9299 9.91 11.9299 10.5C11.9299 10.7 12.0899 10.86 12.2899 10.86C12.4899 10.86 12.6499 10.7 12.6499 10.5C12.6499 10.3 12.8099 10.14 13.0099 10.14C13.2099 10.14 13.3699 10.3 13.3699 10.5V15.49C13.3699 15.69 13.2199 15.85 13.0099 15.85C12.8099 15.85 12.6499 15.69 12.6499 15.49V11.74C12.6499 11.54 12.4899 11.38 12.2899 11.38C12.0899 11.38 11.9299 11.54 11.9299 11.74V15.49C11.9299 16.08 12.4099 16.56 12.9999 16.56C13.5899 16.56 14.0699 16.08 14.0699 15.49V10.5C14.0699 9.91 13.5899 9.43 12.9999 9.43Z" fill="#DBDBDB"/>
<path d="M3.36004 9.24C3.81004 9.24 4.18004 8.87 4.18004 8.42V6.16C4.18004 5.04 5.02004 4.2 6.14004 4.2H8.40004C8.85004 4.2 9.22004 3.83 9.22004 3.38C9.22004 2.93 8.85004 2.56 8.40004 2.56H6.14004C4.12004 2.56 2.54004 4.14 2.54004 6.17V8.43C2.54004 8.88 2.91004 9.25 3.36004 9.25V9.24Z" fill="#DBDBDB"/>
<path d="M19.84 2.54H17.58C17.13 2.54 16.76 2.91 16.76 3.36C16.76 3.81 17.13 4.18 17.58 4.18H19.84C20.96 4.18 21.8 5.02 21.8 6.14V8.39999C21.8 8.84999 22.17 9.21999 22.62 9.21999C23.07 9.21999 23.44 8.84999 23.44 8.39999V6.14C23.44 4.12 21.86 2.53 19.83 2.53L19.84 2.54Z" fill="#DBDBDB"/>
<path d="M8.41005 21.81H6.15005C5.03005 21.81 4.19005 20.97 4.19005 19.85V17.59C4.19005 17.14 3.82005 16.77 3.37005 16.77C2.92005 16.77 2.55005 17.14 2.55005 17.59V19.85C2.55005 21.87 4.13005 23.46 6.16005 23.46H8.42005C8.87005 23.46 9.24005 23.09 9.24005 22.64C9.24005 22.19 8.87005 21.82 8.42005 21.82L8.41005 21.81Z" fill="#DBDBDB"/>
<path d="M22.63 16.76C22.18 16.76 21.81 17.13 21.81 17.58V19.84C21.81 20.96 20.97 21.8 19.85 21.8H17.59C17.14 21.8 16.77 22.17 16.77 22.62C16.77 23.07 17.14 23.44 17.59 23.44H19.85C21.87 23.44 23.46 21.86 23.46 19.83V17.57C23.46 17.12 23.09 16.75 22.64 16.75L22.63 16.76Z" fill="#DBDBDB"/>
</svg>
