<svg width="26" height="26" viewBox="0 0 26 26" fill="none" xmlns="http://www.w3.org/2000/svg">
<g clip-path="url(#clip0_4398_163781)">
<path d="M16.1199 5.64001C16.1199 6.86001 15.4199 7.92001 14.3999 8.42001C13.9799 8.64001 13.5099 8.76001 12.9999 8.76001C12.4899 8.76001 12.0299 8.64001 11.6099 8.43001C10.5899 7.92001 9.87988 6.86001 9.87988 5.64001C9.87988 3.91001 11.2799 2.51001 12.9999 2.51001C14.7199 2.51001 16.1199 3.91001 16.1199 5.64001Z" stroke="#262626" stroke-width="1.6" stroke-linecap="round" stroke-linejoin="round"/>
<path d="M8.72999 20.43C8.72999 22.16 7.32999 23.56 5.60999 23.56C3.88999 23.56 2.48999 22.16 2.48999 20.43C2.48999 18.7 3.87999 17.31 5.60999 17.31C6.10999 17.31 6.57999 17.43 6.99999 17.65C8.02999 18.15 8.72999 19.21 8.72999 20.43Z" stroke="#262626" stroke-width="1.6" stroke-linecap="round" stroke-linejoin="round"/>
<path d="M23.5901 20.43C23.5901 22.16 22.2001 23.56 20.4701 23.56C18.7401 23.56 17.3501 22.16 17.3501 20.43C17.3501 19.21 18.0501 18.16 19.0701 17.65C19.4901 17.43 19.9701 17.31 20.4701 17.31C22.2001 17.31 23.5901 18.71 23.5901 20.43Z" stroke="#262626" stroke-width="1.6" stroke-linecap="round" stroke-linejoin="round"/>
<path d="M19.07 17.65C18.05 18.16 17.35 19.21 17.35 20.43H8.73C8.73 19.21 8.03 18.15 7 17.65L11.61 8.43001C12.03 8.64001 12.5 8.76001 13 8.76001C13.5 8.76001 13.98 8.64001 14.4 8.42001L19.07 17.65Z" stroke="#262626" stroke-width="1.6" stroke-linecap="round" stroke-linejoin="round"/>
</g>
<defs>
<clipPath id="clip0_4398_163781">
<rect width="26" height="26" fill="white"/>
</clipPath>
</defs>
</svg>
