<svg width="26" height="26" viewBox="0 0 26 26" fill="none" xmlns="http://www.w3.org/2000/svg">
<path d="M13.0001 16.92C15.165 16.92 16.9201 15.165 16.9201 13C16.9201 10.8351 15.165 9.08 13.0001 9.08C10.8351 9.08 9.08008 10.8351 9.08008 13C9.08008 15.165 10.8351 16.92 13.0001 16.92Z" stroke="#DBDBDB" stroke-width="1.6" stroke-linecap="round" stroke-linejoin="round"/>
<path d="M5.12012 5.11L9.90012 9.9" stroke="#DBDBDB" stroke-width="1.6" stroke-linecap="round" stroke-linejoin="round"/>
<path d="M5.02988 8.43001C6.90765 8.43001 8.42988 6.90777 8.42988 5.03001C8.42988 3.15224 6.90765 1.63 5.02988 1.63C3.15212 1.63 1.62988 3.15224 1.62988 5.03001C1.62988 6.90777 3.15212 8.43001 5.02988 8.43001Z" fill="#DBDBDB"/>
<path d="M20.89 20.89L15.78 15.77" stroke="#DBDBDB" stroke-width="1.6" stroke-linecap="round" stroke-linejoin="round"/>
<path d="M20.9698 24.37C22.8476 24.37 24.3698 22.8478 24.3698 20.97C24.3698 19.0922 22.8476 17.57 20.9698 17.57C19.0921 17.57 17.5698 19.0922 17.5698 20.97C17.5698 22.8478 19.0921 24.37 20.9698 24.37Z" fill="#DBDBDB"/>
<path d="M5.12012 20.89L10.0601 15.94" stroke="#DBDBDB" stroke-width="1.6" stroke-linecap="round" stroke-linejoin="round"/>
<path d="M5.02988 24.37C6.90765 24.37 8.42988 22.8478 8.42988 20.97C8.42988 19.0922 6.90765 17.57 5.02988 17.57C3.15212 17.57 1.62988 19.0922 1.62988 20.97C1.62988 22.8478 3.15212 24.37 5.02988 24.37Z" fill="#DBDBDB"/>
<path d="M20.89 5.11L15.96 10.04" stroke="#DBDBDB" stroke-width="1.6" stroke-linecap="round" stroke-linejoin="round"/>
<path d="M20.9698 8.43001C22.8476 8.43001 24.3698 6.90777 24.3698 5.03001C24.3698 3.15224 22.8476 1.63 20.9698 1.63C19.0921 1.63 17.5698 3.15224 17.5698 5.03001C17.5698 6.90777 19.0921 8.43001 20.9698 8.43001Z" fill="#DBDBDB"/>
</svg>
