<svg width="26" height="26" viewBox="0 0 26 26" fill="none" xmlns="http://www.w3.org/2000/svg">
<path d="M5.02988 8.43001C6.90765 8.43001 8.42989 6.90777 8.42989 5.03001C8.42989 3.15224 6.90765 1.63 5.02988 1.63C3.15212 1.63 1.62988 3.15224 1.62988 5.03001C1.62988 6.90777 3.15212 8.43001 5.02988 8.43001Z" fill="#262626"/>
<path d="M20.9701 24.37C22.8478 24.37 24.3701 22.8478 24.3701 20.97C24.3701 19.0922 22.8478 17.57 20.9701 17.57C19.0923 17.57 17.5701 19.0922 17.5701 20.97C17.5701 22.8478 19.0923 24.37 20.9701 24.37Z" fill="#262626"/>
<path d="M5.02988 24.37C6.90765 24.37 8.42989 22.8478 8.42989 20.97C8.42989 19.0922 6.90765 17.57 5.02988 17.57C3.15212 17.57 1.62988 19.0922 1.62988 20.97C1.62988 22.8478 3.15212 24.37 5.02988 24.37Z" fill="#262626"/>
<path d="M20.9701 8.43001C22.8478 8.43001 24.3701 6.90777 24.3701 5.03001C24.3701 3.15224 22.8478 1.63 20.9701 1.63C19.0923 1.63 17.5701 3.15224 17.5701 5.03001C17.5701 6.90777 19.0923 8.43001 20.9701 8.43001Z" fill="#262626"/>
<path d="M20.97 5.03H5.03003V20.97H20.97V5.03Z" stroke="#262626" stroke-width="1.6" stroke-linecap="round" stroke-linejoin="round"/>
<path d="M5.03003 5.03L20.97 20.97" stroke="#262626" stroke-width="1.6" stroke-linecap="round" stroke-linejoin="round"/>
<path d="M5.03003 20.97L20.97 5.03" stroke="#262626" stroke-width="1.6" stroke-linecap="round" stroke-linejoin="round"/>
</svg>
