<svg width="30" height="30" viewBox="0 0 30 30" fill="none" xmlns="http://www.w3.org/2000/svg">
<g clip-path="url(#clip0_8665_371399)">
<path d="M22.2398 7.63C22.0898 7.5 21.8898 7.44 21.6998 7.47L12.1898 8.83C11.8598 8.88 11.6098 9.16 11.6098 9.5V17.46C11.2098 17.23 10.7398 17.09 10.2398 17.09C8.73977 17.09 7.50977 18.31 7.50977 19.82C7.50977 21.33 8.72977 22.55 10.2398 22.55C11.7498 22.55 12.9698 21.33 12.9698 19.82V12.81L21.1198 11.65V16.11C20.7198 15.88 20.2498 15.74 19.7498 15.74C18.2498 15.74 17.0198 16.96 17.0198 18.47C17.0198 19.98 18.2398 21.2 19.7498 21.2C21.2598 21.2 22.4798 19.98 22.4798 18.47V8.15C22.4798 7.95 22.3898 7.77 22.2498 7.64L22.2398 7.63Z" fill="#DBDBDB"/>
<path d="M23.2201 2.84998H6.7801C4.60962 2.84998 2.8501 4.6095 2.8501 6.77998V23.22C2.8501 25.3905 4.60962 27.15 6.7801 27.15H23.2201C25.3906 27.15 27.1501 25.3905 27.1501 23.22V6.77998C27.1501 4.6095 25.3906 2.84998 23.2201 2.84998Z" stroke="#DBDBDB" stroke-width="2" stroke-linecap="round" stroke-linejoin="round"/>
</g>
<defs>
<clipPath id="clip0_8665_371399">
<rect width="30" height="30" fill="white"/>
</clipPath>
</defs>
</svg>
