<svg width="30" height="30" viewBox="0 0 30 30" fill="none" xmlns="http://www.w3.org/2000/svg">
<g clip-path="url(#clip0_6010_3944)">
<path d="M22.2398 7.63049C22.0898 7.50049 21.8898 7.44049 21.6998 7.47049L12.1898 8.83049C11.8598 8.88049 11.6098 9.16049 11.6098 9.50049V17.4605C11.2098 17.2305 10.7398 17.0905 10.2398 17.0905C8.73977 17.0905 7.50977 18.3105 7.50977 19.8205C7.50977 21.3305 8.72977 22.5505 10.2398 22.5505C11.7498 22.5505 12.9698 21.3305 12.9698 19.8205V12.8105L21.1198 11.6505V16.1105C20.7198 15.8805 20.2498 15.7405 19.7498 15.7405C18.2498 15.7405 17.0198 16.9605 17.0198 18.4705C17.0198 19.9805 18.2398 21.2005 19.7498 21.2005C21.2598 21.2005 22.4798 19.9805 22.4798 18.4705V8.15049C22.4798 7.95049 22.3898 7.77049 22.2498 7.64049L22.2398 7.63049Z" fill="#262626"/>
<path d="M23.2196 2.84961H6.77961C4.60913 2.84961 2.84961 4.60913 2.84961 6.77961V23.2196C2.84961 25.3901 4.60913 27.1496 6.77961 27.1496H23.2196C25.3901 27.1496 27.1496 25.3901 27.1496 23.2196V6.77961C27.1496 4.60913 25.3901 2.84961 23.2196 2.84961Z" stroke="#262626" stroke-width="2" stroke-linecap="round" stroke-linejoin="round"/>
</g>
<defs>
<clipPath id="clip0_6010_3944">
<rect width="30" height="30" fill="white"/>
</clipPath>
</defs>
</svg>
